<svg xmlns="http://www.w3.org/2000/svg" viewBox="0 0 39.566 39.566">
    <defs>
        <style>
            .prefix__cls-2{fill:#fff}
        </style>
    </defs>
    <g id="prefix__Group_92" data-name="Group 92" transform="translate(-235.553 -709.579)">
        <g id="prefix__Group_91" data-name="Group 91">
            <g id="prefix__Path_103" data-name="Path 103" style="stroke-miterlimit:10;fill:#142c82">
                <path d="M255.337 748.145h-.041c-10.352-.022-18.76-8.464-18.743-18.818.018-10.338 8.44-18.748 18.773-18.748h.035c10.355.02 18.77 8.455 18.758 18.802-.003 2.525-.504 4.978-1.489 7.292-.95 2.233-2.308 4.24-4.035 5.964-1.727 1.725-3.735 3.08-5.968 4.028-2.314.982-4.767 1.48-7.29 1.48z" style="stroke:none"/>
                <path d="M255.337 747.145c9.774 0 17.77-7.985 17.782-17.765.011-9.791-7.962-17.782-17.76-17.801h-.033c-9.778 0-17.756 7.964-17.773 17.75-.016 9.794 7.954 17.795 17.745 17.816h.039m0 2h-.044c-10.902-.023-19.758-8.914-19.74-19.82.019-10.888 8.889-19.746 19.773-19.746h.037c10.906.021 19.768 8.905 19.756 19.803-.003 2.66-.531 5.245-1.569 7.683-1 2.351-2.43 4.464-4.248 6.28-1.818 1.816-3.932 3.243-6.284 4.24-2.439 1.035-5.023 1.56-7.681 1.56z" style="stroke:none;fill:#fff"/>
            </g>
            <path id="prefix__Path_104" d="M260.206 727.319a16.068 16.068 0 0 1 1.57.708 16.916 16.916 0 0 1 2.721 1.807 4.73 4.73 0 0 1 1.733 3.105 6.1 6.1 0 0 1-1.371 4.972 6.578 6.578 0 0 1-2.588 1.794 12.415 12.415 0 0 1-3.537.866 24.775 24.775 0 0 1-2.751.111h-11.212a.32.32 0 0 1-.359-.259 1.2 1.2 0 0 1-.051-.309c-.01-.4.094-.508.482-.511a7.067 7.067 0 0 0 1.215-.1c.848-.157 1.114-.443 1.341-1.4a6.014 6.014 0 0 0 .114-1.38v-15.671a7.64 7.64 0 0 0-.082-1.161 1.673 1.673 0 0 0-1.526-1.494c-.4-.062-.8-.1-1.192-.147a.334.334 0 0 1-.337-.394 1.043 1.043 0 0 1 .032-.2c.07-.286.134-.335.426-.335h8.215c.163 0 .222-.029.206-.207a2.869 2.869 0 0 0-.367-1.3 1.365 1.365 0 0 0-1.255-.7c-.146 0-.335.065-.427-.029s-.025-.282-.027-.428c0-.368 0-.368.357-.368h7.346c.175 0 .22.052.207.215a3.508 3.508 0 0 0 0 .481c.005.106-.035.139-.139.137-.172 0-.345 0-.517.011a1.311 1.311 0 0 0-1.149.832 3.69 3.69 0 0 0-.29 1.252c-.01.118.051.112.13.114.672.011 1.344.038 2.012.11a9.267 9.267 0 0 1 3.213.844 5.285 5.285 0 0 1 1.578 1.2 3.338 3.338 0 0 1 .755 1.756 4.61 4.61 0 0 1-1.188 3.84 7.623 7.623 0 0 1-3.089 2.158z" class="prefix__cls-2" data-name="Path 104"/>
            <path id="prefix__Path_105" d="M255.12 744.422h-3.756c-.157 0-.2-.042-.188-.194a3.776 3.776 0 0 0 0-.5c-.006-.11.037-.134.137-.131a3.777 3.777 0 0 0 .573-.012 1.336 1.336 0 0 0 1.1-.869 3.549 3.549 0 0 0 .252-1.074c.009-.1.044-.118.134-.118h3.5c.114 0 .133.051.138.14a2.5 2.5 0 0 0 .158.811 1.469 1.469 0 0 0 1.617 1.127c.3-.015.3 0 .3.3 0 .165.07.38-.029.482s-.327.034-.5.034c-1.143.006-2.29.004-3.436.004z" class="prefix__cls-2" data-name="Path 105"/>
            <path id="prefix__Path_106" d="M251.186 728.137v-9.03c0-.492.164-.659.65-.659h5.681a3.878 3.878 0 0 1 3.691 3.126 4.148 4.148 0 0 1-1.333 3.776 7.419 7.419 0 0 1-2.338 1.528 2.455 2.455 0 0 1-.5.107c-.065.013-.089-.017-.086-.08s0-.1 0-.148v-7.032a.576.576 0 0 0-.5-.5h-2.387a.535.535 0 0 0-.265.106.936.936 0 0 0-.493.975c.026 2.319.01 4.638.015 6.957 0 .151-.026.215-.2.226-.269.017-.536.073-.8.11a.182.182 0 0 0-.182.167 2.49 2.49 0 0 0-.068.53c.011.246.092.33.339.335a17.451 17.451 0 0 0 2.25-.139c.961-.105 1.919-.238 2.874-.389a.481.481 0 0 1 .332.066 13.151 13.151 0 0 1 3.122 2.283 5.785 5.785 0 0 1 1.637 2.963 4.9 4.9 0 0 1-2.937 5.42 5.158 5.158 0 0 1-2.223.374c-.164-.006-.379.069-.48-.03s-.031-.315-.031-.48v-9.067c0-.309-.025-.338-.325-.3q-1.45.166-2.9.341a.458.458 0 0 0-.411.473v8.864c0 .153-.023.211-.2.207a1.979 1.979 0 0 1-1.931-2.021v-6.4z" data-name="Path 106" style="fill:#142c82"/>
        </g>
    </g>
</svg>
